<svg xmlns="http://www.w3.org/2000/svg" xmlns:xlink="http://www.w3.org/1999/xlink" version="1.1" x="0px" y="0px" viewBox="0 0 100 100" enable-background="new 0 0 100 100" xml:space="preserve"><g><circle cx="50" cy="50" r="2.75"/><path d="M50,0C22.386,0,0,22.386,0,50s22.386,50,50,50s50-22.386,50-50S77.614,0,50,0z M15.284,37.634l-3.922-0.785   c0.058-0.289,1.509-7.168,9.622-15.281c8.113-8.113,14.992-9.564,15.281-9.622l0.393,1.961l0.403,1.959   c-0.06,0.013-6.067,1.35-13.249,8.53C16.546,31.662,15.296,37.575,15.284,37.634z M28.126,39.186l-3.918-0.804   c0.084-0.423,0.957-4.261,5.497-8.8c4.54-4.54,8.377-5.412,8.8-5.497l0.392,1.961l0.412,1.957c-0.03,0.007-3.087,0.718-6.776,4.407   C28.844,36.099,28.133,39.156,28.126,39.186z M50,65c-8.284,0-15-6.716-15-15s6.716-15,15-15s15,6.716,15,15S58.284,65,50,65z    M61.25,72.286c0.011-0.003,3.067-0.714,6.757-4.402c3.711-3.711,4.397-6.728,4.403-6.757l3.922,0.785   c-0.084,0.422-0.957,4.26-5.497,8.8c-4.539,4.539-8.378,5.412-8.8,5.496L61.25,72.286z M78.849,79.433   c-8.113,8.112-14.992,9.563-15.281,9.621l-0.785-3.922c0.049-0.011,6.058-1.348,13.238-8.527c7.266-7.267,8.517-13.18,8.528-13.238   l3.922,0.785C88.413,64.44,86.962,71.319,78.849,79.433z"/></g></svg>