<svg xmlns="http://www.w3.org/2000/svg" xmlns:xlink="http://www.w3.org/1999/xlink" xmlns:a="http://ns.adobe.com/AdobeSVGViewerExtensions/3.0/" version="1.1" x="0px" y="0px" viewBox="100 100 100 100" enable-background="new 100.5 100.5 100 101" xml:space="preserve"><rect x="0.5" y="0.5" display="none" fill="#000000" stroke="#000000" stroke-miterlimit="10" width="100" height="100"/><rect x="100.5" y="0.5" display="none" fill="#000000" stroke="#000000" stroke-miterlimit="10" width="100" height="100"/><rect x="200.5" y="0.5" display="none" fill="#000000" stroke="#000000" stroke-miterlimit="10" width="100" height="100"/><rect x="0.5" y="100.5" display="none" fill="#000000" stroke="#000000" stroke-miterlimit="10" width="100" height="100"/><rect x="100.5" y="100.5" display="none" fill="#000000" stroke="#000000" stroke-miterlimit="10" width="100" height="100"/><rect x="200.5" y="100.5" display="none" fill="#000000" stroke="#000000" stroke-miterlimit="10" width="100" height="100"/><rect x="0.5" y="200.5" display="none" fill="#000000" stroke="#000000" stroke-miterlimit="10" width="100" height="100"/><rect x="100.5" y="200.5" display="none" fill="#000000" stroke="#000000" stroke-miterlimit="10" width="100" height="100"/><rect x="200.5" y="200.5" display="none" fill="#000000" stroke="#000000" stroke-miterlimit="10" width="100" height="100"/><rect x="100.5" y="100.5" fill="none" width="100" height="201"/><path d="M126.583,143.535c-1.385,1.386-1.396,3.618-0.044,5.023l-0.001,0.002l0.015,0.015c0.012,0.012,0.019,0.026,0.03,0.038  s0.027,0.02,0.038,0.03l24.112,24.112l0.095-0.093l0.093,0.094l24.195-24.196l0,0c1.403-1.404,1.402-3.676,0-5.078  c-1.402-1.401-3.674-1.403-5.078,0l-0.007-0.008l-19.204,19.204l-19.203-19.204l-0.018,0.017  C130.201,142.139,127.97,142.149,126.583,143.535z"/><rect x="100.5" y="201" fill="none" width="100" height="100.5"/><rect x="100.5" y="100.5" fill="none" width="100" height="100.5"/></svg>