<svg xmlns:dc="http://purl.org/dc/elements/1.1/" xmlns:cc="http://creativecommons.org/ns#" xmlns:rdf="http://www.w3.org/1999/02/22-rdf-syntax-ns#" xmlns:svg="http://www.w3.org/2000/svg" xmlns="http://www.w3.org/2000/svg" xmlns:sodipodi="http://sodipodi.sourceforge.net/DTD/sodipodi-0.dtd" xmlns:inkscape="http://www.inkscape.org/namespaces/inkscape" version="1.1" x="0px" y="0px" viewBox="0 0 100 100"><g transform="translate(0,-952.36218)"><path style="text-indent:0;text-transform:none;direction:ltr;block-progression:tb;baseline-shift:baseline;color:#000000;enable-background:accumulate;" d="m 32.29077,971.36577 c -5.5024,0.27125 -10.109801,2.28999 -13.062401,5.5625 -6.9942,7.21281 -6.9565,18.7145 0.125,25.87503 l 29.937401,30.2812 c 0.3697,0.3655 1.0366,0.3655 1.4063,0 9.983,-10.0743 19.9547,-20.1444 29.9375,-30.2187 7.1375,-7.20263 7.1375,-18.8599 0,-26.06253 -7.1372,-7.20265 -18.6751,-7.20273 -25.8125,0 l -4.8125,4.84375 -4.8125,-4.875 c -3.5687,-3.60132 -8.2347,-5.40625 -12.9063,-5.40625 z m 0,2 c 4.1501,0 8.2779,1.5924 11.4688,4.8125 l 5.5625,5.59375 c 0.3697,0.36551 1.0366,0.36551 1.4063,0 l 5.5312,-5.53125 c 6.3818,-6.44029 16.5871,-6.44019 22.9688,0 6.3819,6.44021 6.3819,16.7473 0,23.18753 -9.7444,9.8337 -19.4742,19.6975 -29.2188,29.5312 l -29.218801,-29.5624 c -6.3761,-6.44733 -6.3815,-16.77863 0,-23.21883 3.571201,-3.27854 7.664201,-4.77365 11.500001,-4.8125 z" fill="#000000" fill-opacity="1" stroke="none" marker="none" visibility="visible" display="inline" overflow="visible"/></g></svg>